HIERARCHY
ROOT joint_0
{
	OFFSET 0.000000 0.000000 0.000000
	CHANNELS 6 Xposition Yposition Zposition Zrotation Yrotation Xrotation 
	JOINT joint_1
	{
		OFFSET 0.511002 1.944000 108.288940
		CHANNELS 3 Zrotation Yrotation Xrotation
		JOINT joint_2
		{
			OFFSET -9.074005 1.512993 98.440063
			CHANNELS 3 Zrotation Yrotation Xrotation
			JOINT joint_3
			{
				OFFSET -8.590996 1.815002 98.366943
				CHANNELS 3 Zrotation Yrotation Xrotation
				JOINT joint_4
				{
					OFFSET 2.489998 3.531998 136.462036
					CHANNELS 3 Zrotation Yrotation Xrotation
					JOINT joint_5
					{
						OFFSET 22.708000 2.955002 80.357056
						CHANNELS 3 Zrotation Yrotation Xrotation
						End Site
						{
							OFFSET 0.000000 0.000000 0.000000
						}
					}
				}
				JOINT joint_6
				{
					OFFSET 2.860001 -27.684998 77.234009
					CHANNELS 3 Zrotation Yrotation Xrotation
					JOINT joint_7
					{
						OFFSET 5.449997 -131.244003 -18.851929
						CHANNELS 3 Zrotation Yrotation Xrotation
						JOINT joint_8
						{
							OFFSET 35.757000 -24.661995 -264.074097
							CHANNELS 3 Zrotation Yrotation Xrotation
							JOINT joint_9
							{
								OFFSET 49.392001 -1.747002 -239.960938
								CHANNELS 3 Zrotation Yrotation Xrotation
								End Site
								{
									OFFSET 0.000000 0.000000 0.000000
								}
							}
						}
					}
				}
				JOINT joint_10
				{
					OFFSET -0.127998 31.625000 75.753052
					CHANNELS 3 Zrotation Yrotation Xrotation
					JOINT joint_11
					{
						OFFSET -5.618004 131.132996 -19.557007
						CHANNELS 3 Zrotation Yrotation Xrotation
						JOINT joint_12
						{
							OFFSET 46.488998 30.127991 -261.826050
							CHANNELS 3 Zrotation Yrotation Xrotation
							JOINT joint_13
							{
								OFFSET 66.021003 0.474030 -235.934937
								CHANNELS 3 Zrotation Yrotation Xrotation
								End Site
								{
									OFFSET 0.000000 0.000000 0.000000
								}
							}
						}
					}
				}
			}
		}
	}
	JOINT joint_14
	{
		OFFSET 15.887001 -78.871004 -94.561035
		CHANNELS 3 Zrotation Yrotation Xrotation
		JOINT joint_15
		{
			OFFSET -4.133003 6.714001 -473.615967
			CHANNELS 3 Zrotation Yrotation Xrotation
			JOINT joint_16
			{
				OFFSET -19.541000 5.340000 -399.613007
				CHANNELS 3 Zrotation Yrotation Xrotation
				JOINT joint_17
				{
					OFFSET 164.317001 41.657999 -73.195000
					CHANNELS 3 Zrotation Yrotation Xrotation
					End Site
					{
						OFFSET 0.000000 0.000000 0.000000
					}
				}
			}
		}
	}
	JOINT joint_18
	{
		OFFSET 6.513000 77.960991 -96.406982
		CHANNELS 3 Zrotation Yrotation Xrotation
		JOINT joint_19
		{
			OFFSET -10.660004 -8.518997 -473.485016
			CHANNELS 3 Zrotation Yrotation Xrotation
			JOINT joint_20
			{
				OFFSET -36.967995 -11.098999 -398.260010
				CHANNELS 3 Zrotation Yrotation Xrotation
				JOINT joint_21
				{
					OFFSET 166.067997 30.363998 -74.785000
					CHANNELS 3 Zrotation Yrotation Xrotation
					End Site
					{
						OFFSET 0.000000 0.000000 0.000000
					}
				}
			}
		}
	}
}
MOTION
Frames: 5
Frame Time: 0.016667
-2920.209961 925.639038 1069.245972 -7.154480 0.125635 0.007582 0.883783 1.813225 -0.157769 0.830962 -0.136936 0.016892 0.797033 0.258245 -0.054044 -0.060016 -8.323137 1.769318 0.000000 0.000000 0.000000 0.534038 13.138319 -4.021400 -6.820633 9.392654 -14.903012 -0.294421 -72.538667 11.418067 0.000000 0.000000 0.000000 -2.218597 18.939990 4.675060 10.572334 14.072774 4.971870 1.091047 -82.677519 -13.246904 0.000000 0.000000 0.000000 -2.614076 -5.516715 -7.574009 -2.580539 28.010287 5.299273 -5.655060 -9.704316 0.129736 0.000000 0.000000 0.000000 -0.163622 2.007446 6.612146 -0.099454 12.743657 -2.254483 -0.201069 -0.322630 -0.023781 0.000000 0.000000 0.000000 
-2903.373047 924.776917 1071.484985 -7.715228 0.170562 0.075929 1.064646 1.433812 0.031680 1.006243 -0.116713 0.026190 0.960495 0.240036 -0.033255 -0.064374 -8.274094 1.770793 0.000000 0.000000 0.000000 0.146042 14.027226 -3.895004 -7.504350 9.209715 -16.268127 -0.967034 -77.810324 10.470828 0.000000 0.000000 0.000000 -2.145023 19.956123 4.685024 11.374861 13.336411 5.019176 1.917822 -88.771390 -10.538968 0.000000 0.000000 0.000000 -3.643332 -6.988155 -8.964287 -3.678861 32.507566 6.904850 -8.513901 -10.764886 -0.719177 0.000000 0.000000 0.000000 -0.234486 2.329538 6.587217 -0.177428 13.903515 -2.499486 -0.336173 0.776057 -0.283310 0.000000 0.000000 0.000000 
-2886.381348 923.448303 1073.342041 -8.269623 0.528589 0.107597 1.149914 0.795368 0.460659 1.151663 -0.063254 -0.049369 1.109469 0.147713 0.029858 -0.042333 -8.182706 1.663534 0.000000 0.000000 0.000000 -0.123633 15.267811 -4.079570 -8.455491 9.075353 -17.685759 -1.673690 -84.313863 10.880390 0.000000 0.000000 0.000000 -2.171333 21.034307 4.729122 12.827143 12.475333 5.819137 -177.225534 -85.235520 170.398224 0.000000 0.000000 0.000000 -4.803552 -8.696539 -10.341168 -4.946572 36.421398 8.172459 -11.949068 -11.898619 -1.747733 0.000000 0.000000 0.000000 -0.342494 2.492273 6.700201 -0.275601 14.680716 -2.913160 -0.519806 1.993492 -0.584804 0.000000 0.000000 0.000000 
-2868.969482 921.793213 1074.995972 -8.801611 1.087014 0.146769 1.121447 0.031491 1.011518 1.283665 -0.000685 -0.153942 1.252043 0.020318 0.117038 0.000214 -8.087716 1.483926 0.000000 0.000000 0.000000 -0.382912 16.523881 -4.414988 -9.603441 8.766544 -19.044854 177.689046 -88.795751 -167.929352 0.000000 0.000000 0.000000 -2.278403 21.985932 4.689904 14.742104 11.470324 7.003084 -176.281574 -79.642042 170.565540 0.000000 0.000000 0.000000 -6.061245 -10.618893 -11.747226 -6.362736 39.820770 9.138972 -15.869750 -13.217910 -2.893767 0.000000 0.000000 0.000000 -0.479423 2.603103 6.838927 -0.390642 15.117833 -3.392304 -0.733954 3.365017 -0.926780 0.000000 0.000000 0.000000 
-2851.122559 920.092590 1076.438965 -9.299344 1.702187 0.226724 0.954959 -0.704374 1.575595 1.351872 0.060769 -0.254306 1.340561 -0.111833 0.209224 0.057302 -8.023150 1.292532 0.000000 0.000000 0.000000 -0.601803 16.690258 -4.664915 -10.674476 7.910100 -20.048389 177.495750 -83.298678 -166.073311 0.000000 0.000000 0.000000 -2.506735 22.466240 4.578299 16.569009 10.503564 7.828606 -175.473032 -75.548196 170.321818 0.000000 0.000000 0.000000 -6.895037 -12.731121 -13.075948 -7.397070 42.208697 9.524986 -19.021364 -14.194321 -3.805487 0.000000 0.000000 0.000000 -0.575745 2.761811 6.841376 -0.474968 15.310292 -3.730634 -0.906205 4.875154 -1.277698 0.000000 0.000000 0.000000 
